<?xml version="1.0" standalone="no"?>
<!DOCTYPE svg PUBLIC "-//W3C//DTD SVG 20010904//EN"
 "http://www.w3.org/TR/2001/REC-SVG-20010904/DTD/svg10.dtd">
<svg version="1.0" xmlns="http://www.w3.org/2000/svg"
 width="512.000000pt" height="512.000000pt" viewBox="0 0 512.000000 512.000000"
 preserveAspectRatio="xMidYMid meet">
<metadata>
Created by potrace 1.11, written by Peter Selinger 2001-2013
</metadata>
<g transform="translate(0.000000,512.000000) scale(0.100000,-0.100000)"
fill="#000000" stroke="none">
<path d="M2419 4795 c-145 -29 -267 -95 -381 -206 -77 -75 -79 -76 -141 -83
-185 -19 -362 -106 -483 -239 -49 -53 -51 -54 -121 -61 -176 -17 -320 -84
-452 -210 -86 -82 -153 -188 -188 -297 l-28 -89 -98 0 c-119 0 -166 -19 -197
-80 -19 -38 -20 -58 -20 -540 0 -304 4 -530 11 -573 15 -101 54 -227 100 -320
45 -91 62 -117 141 -215 l59 -72 -251 0 c-232 0 -254 -2 -290 -20 -26 -13 -47
-34 -60 -60 -19 -37 -20 -58 -20 -370 0 -312 1 -333 20 -370 13 -26 34 -47 60
-60 36 -18 58 -20 285 -20 l245 0 0 -240 c0 -222 2 -244 20 -280 13 -26 34
-47 60 -60 37 -19 58 -20 370 -20 312 0 333 1 370 20 26 13 47 34 60 60 18 36
20 58 20 280 l0 240 1050 0 1050 0 0 -240 c0 -222 2 -244 20 -280 13 -26 34
-47 60 -60 37 -19 58 -20 370 -20 312 0 333 1 370 20 26 13 47 34 60 60 18 36
20 58 20 280 l0 240 245 0 c227 0 249 2 285 20 26 13 47 34 60 60 19 37 20 58
20 370 0 312 -1 333 -20 370 -13 26 -34 47 -60 60 -36 18 -58 20 -290 20
l-251 0 59 73 c79 97 96 123 141 214 46 93 85 219 100 320 7 43 11 269 11 573
0 482 -1 502 -20 540 -31 61 -78 80 -197 80 l-98 0 -28 89 c-35 109 -102 215
-188 297 -132 126 -276 193 -452 210 -70 7 -72 8 -121 61 -121 133 -298 220
-483 239 -62 7 -64 8 -141 83 -43 42 -103 91 -135 110 -165 97 -351 131 -528
96z m292 -314 c84 -32 161 -92 218 -171 73 -99 83 -104 215 -106 89 0 122 -5
167 -22 86 -34 148 -83 214 -169 77 -99 108 -116 197 -107 170 16 348 -78 426
-224 18 -33 32 -63 32 -66 0 -3 -729 -6 -1620 -6 -891 0 -1620 3 -1620 6 0 25
73 134 114 171 98 88 207 125 351 121 99 -4 114 5 188 105 100 135 213 190
392 191 121 1 134 8 205 106 100 136 235 204 390 196 43 -2 99 -13 131 -25z
m1796 -1613 c-3 -361 -6 -452 -19 -493 -85 -278 -289 -478 -558 -546 -82 -21
-2658 -21 -2740 0 -269 68 -473 268 -558 546 -13 41 -16 132 -19 493 l-4 442
1951 0 1951 0 -4 -442z m313 -1508 l0 -150 -2260 0 -2260 0 0 150 0 150 2260
0 2260 0 0 -150z m-3610 -600 l0 -150 -150 0 -150 0 0 150 0 150 150 0 150 0
0 -150z m3000 0 l0 -150 -150 0 -150 0 0 150 0 150 150 0 150 0 0 -150z"/>
<path d="M2488 4189 c-43 -22 -78 -81 -78 -129 0 -50 35 -107 80 -130 21 -11
53 -20 70 -20 76 0 150 74 150 150 0 50 -35 107 -80 130 -49 25 -94 25 -142
-1z"/>
<path d="M1888 4039 c-43 -22 -78 -81 -78 -129 0 -50 35 -107 80 -130 21 -11
53 -20 70 -20 76 0 150 74 150 150 0 50 -35 107 -80 130 -49 25 -94 25 -142
-1z"/>
<path d="M3088 4039 c-43 -22 -78 -81 -78 -129 0 -50 35 -107 80 -130 21 -11
53 -20 70 -20 50 0 107 35 130 80 11 21 20 53 20 70 0 50 -35 107 -80 130 -49
25 -94 25 -142 -1z"/>
</g>
</svg>
