<?xml version="1.0" encoding="utf-8"?>
<!-- Generator: Adobe Illustrator 16.0.0, SVG Export Plug-In . SVG Version: 6.00 Build 0)  -->
<!DOCTYPE svg PUBLIC "-//W3C//DTD SVG 1.1//EN" "http://www.w3.org/Graphics/SVG/1.1/DTD/svg11.dtd">
<svg version="1.1" id="Layer_1" xmlns="http://www.w3.org/2000/svg" xmlns:xlink="http://www.w3.org/1999/xlink" x="0px" y="0px"
	 width="71.007px" height="68.056px" viewBox="0 0 71.007 68.056" enable-background="new 0 0 71.007 68.056" xml:space="preserve">
<g>
	<g>
		<path fill-rule="evenodd" clip-rule="evenodd" fill="#ED1C24" d="M46.068,11.778c-0.061-0.026-0.117-0.05-0.176-0.074
			c0.072,0.043,0.145,0.086,0.211,0.129C46.128,11.823,46.146,11.814,46.068,11.778z"/>
		<path fill-rule="evenodd" clip-rule="evenodd" fill="#ED1C24" d="M45.892,11.704c-0.344-0.213-0.725-0.445-1.156-0.692
			c-0.672-0.395-1.297-0.593-1.93-0.833c-1.104-0.407-2.516-0.662-2.727-0.572c-0.135,0.045,0.119,0.175,0.459,0.33
			c0.672,0.136,1.289,0.299,1.895,0.484C43.523,10.759,44.597,11.147,45.892,11.704z"/>
		<path fill-rule="evenodd" clip-rule="evenodd" fill="#ED1C24" d="M64.238,42.594c0.039-0.479,0.016-0.936,0.016-1.393l-0.006-0.17
			c0-0.059,0-0.114-0.006-0.15l-0.023-0.252c-0.014-0.168-0.027-0.337-0.041-0.506c-0.057-0.687-0.113-1.394-0.178-2.191
			c-0.033-0.533-0.094-1.042-0.158-1.53c-0.062-0.487-0.119-0.95-0.213-1.414c-0.086-0.462-0.17-0.915-0.254-1.376
			c-0.104-0.464-0.209-0.932-0.318-1.42c-0.082-0.409-0.209-0.859-0.32-1.321c-0.078-0.307-0.154-0.618-0.238-0.932
			c0.238,0.067,0.488-0.001,0.721,0.071c0.148,0.047,0.389-0.062,0.439-0.209c0.168-0.465-0.059-1.027-0.223-1.525
			c-0.08-0.241-0.34-0.444-0.498-0.677c-0.154-0.227-0.479-0.349-0.436-0.71c0.002-0.007-0.135-0.084-0.211-0.108
			c-0.191-0.064-0.049,0.099-0.057,0.168c-0.035,0.218-0.031,0.503-0.156,0.611c-0.082,0.07-0.145,0.136-0.178,0.215
			c-0.156-0.589-0.248-1.008-0.195-1.129c0.037-0.104,0.137-0.037,0.191-0.098c0.01-0.012-0.059-0.254-0.098-0.406
			c-0.002-0.019-0.084-0.18-0.111-0.217c-0.154-0.226-0.336-0.515-0.447-0.622c-0.119-0.114-0.193-0.266-0.332-0.73
			c-0.068-0.239-0.148-0.461-0.266-0.739c-0.156-0.374-0.348-0.793-0.527-1.192c-0.154-0.221-0.402-0.514-0.527-0.627
			c-0.105-0.093-0.049,0.103-0.158,0.004c-0.049-0.044-0.328-0.474-0.502-0.748c-0.092-0.143-0.256-0.447-0.254-0.474
			c-0.002-0.086,0.084-0.043,0.096-0.105c0.008-0.044-0.053-0.18-0.086-0.275c-0.176-0.213-0.389-0.475-0.531-0.622
			c-0.311-0.325-0.521-0.527-0.893-0.89c-0.381-0.363-0.781-0.74-1.191-1.127c-0.197-0.195-0.422-0.375-0.646-0.553
			s-0.449-0.357-0.678-0.536c-0.252-0.2-0.541-0.427-0.762-0.602c-0.23-0.169-0.373-0.306-0.312-0.354
			c-0.283-0.256-0.543-0.495-0.789-0.718c-0.246-0.224-0.469-0.443-0.697-0.616c-0.445-0.37-0.84-0.698-1.221-1.016
			c-0.381-0.331-0.762-0.602-1.17-0.903c-0.201-0.151-0.432-0.293-0.67-0.446c-0.24-0.147-0.486-0.313-0.77-0.463
			c-0.207-0.112-0.1-0.119-0.053-0.144c0.002,0,0.033,0.011,0.084,0.029c0.051,0.02,0.119,0.044,0.191,0.07
			c0.146,0.057,0.305,0.13,0.383,0.169c0.846,0.405,2.018,1.123,2.393,1.278c0.287,0.103-0.018-0.112-0.477-0.397
			c-0.465-0.26-1.066-0.595-1.41-0.774c-0.357-0.2-0.773-0.436-1.234-0.644c-0.229-0.106-0.461-0.216-0.701-0.313
			c-0.24-0.096-0.484-0.187-0.727-0.27c-0.422-0.141-0.777-0.254-1.076-0.35c0.914,0.588,1.885,1.288,2.92,2.112
			c0.002,0.001,0.006,0.001,0.006,0.001c-0.084-0.049-0.164-0.102-0.242-0.151c-1.086-0.638-2.219-1.205-3.434-1.693
			c-0.387-0.147-0.674-0.276-0.941-0.396c-0.336-0.134-1.035-0.362-1.9-0.524c-0.861-0.18-1.881-0.285-2.809-0.318
			c0,0.021-0.104,0.046,0.012,0.061c1.534,0.223,3.381,0.646,4.615,1.132c0.357,0.144,0.752,0.303,1.148,0.461
			c0.387,0.172,0.775,0.34,1.113,0.514c0.615,0.329,0.773,0.532,1.705,0.979c0.619,0.301,1.004,0.546,1.377,0.784
			c0.184,0.124,0.367,0.246,0.572,0.383c0.092,0.057,0.189,0.121,0.293,0.189c0.01,0.006,0.016,0.012,0.027,0.019
			c0.104,0.068,0.213,0.143,0.332,0.224c0.002,0.002,0.006,0.004,0.01,0.008c0.541,0.526,1.057,1.074,1.551,1.64
			c0.086,0.052,0.17,0.104,0.254,0.156c-0.084-0.052-0.168-0.104-0.254-0.156l0,0c-0.002-0.001-0.004-0.003-0.006-0.004
			c-0.064-0.04-0.129-0.078-0.193-0.118c-0.137-0.082-0.273-0.161-0.426-0.233c-0.309-0.166-0.639-0.34-0.998-0.532
			c-0.357-0.193-0.742-0.41-1.176-0.614c-0.021-0.009-0.035-0.017-0.055-0.024c-0.322-0.309-0.646-0.602-0.969-0.837
			c-0.285-0.218-0.832-0.698-1.168-0.872c-0.289-0.15-0.615-0.349-0.988-0.578c-0.01,0.005-0.027,0.01-0.027,0.019
			c-0.262-0.091-0.559-0.165-0.793-0.241c-0.926-0.296-1.885-0.532-2.852-0.711c0.053,0.037,0.102,0.073,0.141,0.111
			c0.27,0.246,1.316,0.777,2.479,1.538c0.939,0.601,1.801,1.343,2.656,2.012c0.029,0.027,0.072,0.062,0.107,0.092
			c-0.02,0-0.031,0.001-0.033,0.008c-0.006,0.031,0.008,0.07,0.014,0.104c0.029,0,0.057-0.002,0.092-0.006l-0.014-0.055
			c0.344,0.292,0.766,0.704,1.121,1.081c0.234,0.248,0.455,0.508,0.676,0.77c-0.053,0.105-0.115,0.206-0.127,0.33
			c-0.027,0.247-0.168,0.461-0.184,0.737c-0.457-0.48-0.936-0.932-1.404-1.452c-0.07-0.03-0.174-0.091-0.207-0.082
			c-0.227,0.064-0.26,0.291,0.041,0.889c0.094,0.18,0.186,0.396,0.043,0.313c-0.309-0.176-0.51-0.237-0.643-0.227
			c0.031-0.041,0.062-0.085,0.074-0.133c0.014-0.075-0.078-0.187-0.123-0.284c-0.057,0.034-0.119,0.062-0.172,0.1
			c-0.207,0.156-0.449,0.296-0.541,0.541c-0.043,0.106-0.32,0.078-0.42-0.047c-0.084-0.109-0.15-0.227-0.219-0.344
			c0.064-0.005,0.133-0.006,0.221,0.012c0.168,0.031,0.205-0.1,0.059-0.252c-0.312-0.308-0.826-0.63-1.395-0.918
			c-0.002-0.002-0.004-0.005-0.006-0.008c-0.197-0.198-0.607-0.464-0.822-0.459c-0.412,0.01-0.623-0.15-0.846-0.323
			c-0.371-0.296-0.914-0.464-1.332-0.418c-0.146,0.013-0.28,0.005-0.414-0.009c-0.1-0.045-0.198-0.091-0.215-0.109
			c-0.225-0.188-0.537-0.304-0.882-0.387c-0.013-0.005-0.026-0.012-0.036-0.017c-0.004,0.001-0.007,0.002-0.012,0.005
			c-0.134-0.031-0.273-0.057-0.412-0.081c-0.025-0.185,0.076-0.376-0.027-0.561c-0.064-0.126,0.397-0.166,0.748-0.138
			c0.664,0.053,0.833-0.05,0.647-0.414c-0.056-0.114-0.159-0.188,0.022-0.272c0.088-0.042,0.159-0.181,0.128-0.194
			c-0.206-0.086-0.501-0.22-0.668-0.2c-0.384,0.046-0.56,0.049-0.526-0.195c-0.083-0.01-0.252-0.013-0.252-0.013
			c-0.02,0.253-0.183,0.153-0.415,0.037c-0.142-0.07-0.468-0.17-0.521-0.147c-0.513,0.219-0.546-0.027-0.676-0.16
			c-0.05-0.053,0.036-0.141-0.025-0.188c-0.052-0.039-0.239-0.065-0.345-0.052c-0.086,0.012-0.204,0.101-0.184,0.138
			c0.056,0.094,0.192,0.174,0.262,0.266c0.018,0.024-0.074,0.098-0.121,0.101c-0.12,0.007-0.291,0.007-0.357-0.027
			c-0.072-0.036-0.035-0.119-0.071-0.177c-0.034-0.053-0.1-0.1-0.155-0.148c-0.041,0.037-0.104,0.072-0.117,0.109
			c-0.056,0.153-0.159,0.261-0.543,0.25c-0.282-0.01-0.799,0-0.807-0.046c-0.048-0.274-0.686-0.084-0.934-0.206
			c-0.23-0.125-0.378-0.061-0.83,0.256c-0.05,0.035-0.123,0.1-0.15,0.1c-0.443-0.017-1.002,0.092-1.277,0.005
			c-0.416-0.136-1.131,0.201-1.444,0.04c-0.733,0.321-1.011,0.06-1.517,0.089c-0.031,0.002-0.087,0.021-0.119,0.042
			c-0.719,0.454-1.301,0.422-1.934,0.62c-0.523,0.17-0.945-0.012-1.602,0.51c-0.096,0.085-0.255,0.108-0.409,0.132
			c0.046-0.022,0.089-0.048,0.132-0.069c1.363-0.699,2.822-1.294,4.165-1.692c2.265-0.678,4.812-1.159,7.483-1.23
			c1.705-0.052,3.459,0.087,5.174,0.404c-0.137-0.098-0.311-0.195-0.496-0.302c-0.266-0.138-0.561-0.271-0.818-0.397
			c-0.188-0.089-0.395-0.18-0.578-0.264c-0.602-0.121-1.249-0.221-1.982-0.292c-1.688-0.146-2.689-0.245-3.987-0.252
			c-0.304,0.005-0.596,0.006-0.718-0.023c-0.164-0.032,0.494-0.209,1.285-0.276c1.777-0.168,3.557-0.159,5.354,0.031
			c0.592,0.073,1.242,0.142,1.885,0.254c0.209,0.036,0.492,0.054,0.742,0.097c-0.094-0.033-0.162-0.065-0.279-0.097
			c-0.881-0.255-1.843-0.479-2.688-0.639c-0.203-0.038,0.034-0.073,0.065-0.11c0.47,0.028,1.075,0.104,1.374,0.154
			c0.545,0.106,0.803,0.218,1.365,0.341c0.854,0.223,1.266,0.37,1.264,0.478c0.002,0.064,0.09,0.146,0.459,0.282
			c0.229,0.082,0.568,0.187,1.049,0.341c-0.094-0.061-0.189-0.127-0.283-0.185c-0.994-0.621-1.889-1.123-2.664-1.532
			c-0.334-0.184-0.648-0.336-0.957-0.496c-0.313-0.143-0.617-0.294-0.938-0.426c-0.642-0.258-1.343-0.515-2.253-0.701
			c-0.486-0.114-0.981-0.244-0.662-0.286c0.681-0.07,0.246-0.164-0.4-0.198c-0.615-0.035-0.887-0.049-1.111-0.092
			c-0.221-0.04-0.385-0.077-0.762-0.078c-0.198-0.001-0.41-0.002-0.617-0.002c-0.201,0.005-0.393,0.012-0.547,0.011
			c-0.311,0-0.479-0.022-0.296-0.105c0.021-0.009-0.322-0.015-0.434,0.006c-1.354,0.191-1.856,0.2-2.733,0.293
			c-0.293,0.024-0.754,0.135-1.153,0.227c-0.398,0.092-0.732,0.169-0.763,0.159C29.074,6.794,28.92,6.8,28.72,6.827
			c-0.197,0.035-0.439,0.102-0.705,0.176c-0.265,0.077-0.552,0.163-0.834,0.246c-0.145,0.043-0.283,0.085-0.422,0.125
			c-0.133,0.047-0.262,0.092-0.385,0.134c-0.606,0.205-1.773,0.688-1.419,0.391c0.017-0.012-0.118,0.026-0.28,0.089
			c-0.166,0.063-0.363,0.142-0.481,0.187c-0.247,0.089-0.516,0.197-0.798,0.32c-0.279,0.121-0.576,0.254-0.858,0.415
			c-0.567,0.313-1.167,0.629-1.683,0.945c-0.779,0.481-1.561,0.941-2.274,1.461c-0.358,0.256-0.726,0.48-1.056,0.736
			c-0.336,0.255-0.67,0.507-1.012,0.764c-0.384,0.28-0.742,0.613-1.108,0.927c-0.358,0.317-0.732,0.614-1.039,0.913
			c-0.64,0.604-1.075,0.847-1.907,1.829c-0.6,0.664-1.115,1.12-1.812,2.188c-0.072,0.111-0.574,0.693-0.877,1.061
			C9.542,20.285,9.138,20.7,8.84,21.215c-0.423,0.693-0.825,1.448-1.22,2.195c-0.179,0.312-0.327,0.676-0.479,1.03
			c-0.155,0.355-0.305,0.711-0.449,1.073c-0.169,0.49-0.323,1.013-0.477,1.518c-0.086,0.251-0.139,0.506-0.197,0.749
			c-0.062,0.242-0.122,0.474-0.176,0.692c-0.06,0.213-0.117,0.437-0.16,0.664c-0.035,0.23-0.07,0.462-0.106,0.689
			c-0.06,0.453-0.147,0.881-0.212,1.228c0.045,0.436,0.02,0.861-0.025,1.285c-0.053,0.421-0.066,0.841-0.08,1.251
			c-0.029,1.445,0.245,2.749,0.457,4.263c0.049,0.26,0.162,0.624,0.292,1.023c0.065,0.199,0.138,0.409,0.208,0.618
			c0.079,0.208,0.156,0.416,0.234,0.616c0.108,0.31,0.23,0.653,0.354,1.006c0.134,0.346,0.271,0.7,0.401,1.033
			c0.107,0.271,0.107,0.509,0.194,0.781c0.159,0.524,0.312,1.064,0.487,1.58c0.186,0.513,0.366,1.013,0.535,1.48
			c0.382,0.917,0.684,1.737,0.857,2.278c0.088,0.287,0.426,1.007,0.961,1.711c0.25,0.333,0.461,0.656,0.693,0.951
			c0.232,0.298,0.457,0.59,0.695,0.893c0.234,0.308,0.503,0.604,0.807,0.927c0.154,0.158,0.315,0.324,0.482,0.499
			c0.17,0.177,0.356,0.352,0.563,0.53c0.483,0.421,1.116,1.068,1.405,1.348c0.93,1.046,2.932,2.462,4.494,3.473
			c0.571,0.366,1.185,0.735,1.884,1.056c0.347,0.164,0.702,0.336,1.079,0.495c0.384,0.151,0.779,0.305,1.191,0.459
			c2.164,0.784,4.428,1.357,6.778,1.713c0.594,0.074,1.182,0.177,1.782,0.225c0.603,0.047,1.207,0.104,1.819,0.139
			c0.612,0.016,1.228,0.031,1.847,0.048c0.647-0.01,1.307-0.032,1.968-0.054c0.389-0.007,0.799-0.069,1.201-0.107
			c0.21-0.021,0.388-0.048,0.575-0.075l0.551-0.08c0.584-0.092,1.379-0.222,1.697-0.323c1.572-0.473,2.686-0.727,3.777-0.928
			c0.143-0.023,0.311-0.061,0.512-0.12c0.613-0.179,1.408-0.433,1.824-0.617c0.949-0.438-0.666,0.178-0.328-0.032
			c0.059-0.032-0.469,0.129-0.572,0.137c-0.098,0.01-0.104-0.036,0.059-0.115c0.162-0.081,0.697-0.288,0.859-0.347
			c0.275-0.09,0.523-0.167,0.789-0.269c0.264-0.106,0.541-0.239,0.877-0.43c0.113-0.058,0.547-0.275,0.67-0.321
			c1.17-0.445,2.41-1.019,3.355-1.484c0.438-0.203,0.641-0.354,1.164-0.737c1.088-0.855,1.266-1.178,1.924-1.851
			c0.605-0.625,0.91-1.016,0.953-1.12c0.035-0.107-0.193,0.07-0.727,0.479c-0.715,0.527-0.715,0.465-0.148-0.165
			c0.582-0.678,1.283-1.377,2.014-2.286c0.34-0.398,0.598-0.772,0.787-0.993c0.191-0.224,0.293-0.32,0.285-0.206
			c-0.02,0.331-0.01,0.609-0.041,0.947c-0.01,0.072-0.123,0.293-0.195,0.436c-0.096,0.066-0.244,0.199-0.271,0.184
			c-0.152-0.071-0.268-0.187-0.42-0.258c-0.006-0.002-0.057,0.055-0.125,0.129c-0.068,0.075-0.152,0.167-0.213,0.237
			c-0.033,0.036-0.148,0.196-0.148,0.204c0.021,0.048,0.092,0.036,0.096,0.1c0.023,0.304,0.518,0.092,0.094,0.892
			c-0.301,0.561-0.207,0.717-0.141,0.896c0.053,0.136,0.062,0.291-0.166,0.694c-0.287,0.489-0.367,0.768-0.545,1.144
			c0.316-0.251,0.557-0.467,0.754-0.665c0.197-0.208,0.352-0.396,0.51-0.586c0.316-0.377,0.625-0.776,1.236-1.38
			c0.303-0.43,0.607-0.854,0.885-1.31c0.141-0.225,0.281-0.444,0.41-0.672c0.129-0.23,0.256-0.46,0.381-0.686
			c0.119-0.225,0.139-0.358,0.215-0.488c0.248-0.42,0.412-0.724,0.525-0.963c0.105-0.245,0.166-0.417,0.213-0.567
			c0.092-0.303,0.146-0.505,0.363-1.042c0.363-0.866,0.434-1.275,0.492-1.569c0.055-0.296,0.062-0.494,0.162-0.996
			c0.113-0.48,0.254-1.212,0.344-1.803C64.314,42.975,64.328,42.521,64.238,42.594z M34.763,35.96
			c0.041-0.107,0.112-0.095,0.229-0.006c0.035,0.029,0.068,0.061,0.103,0.091c-0.126,0.016-0.241,0.029-0.346,0.044
			C34.75,36.044,34.757,36,34.763,35.96z M40.032,37.311c0.002-0.001,0.002-0.001,0.004-0.001c0,0.002-0.002,0.005-0.002,0.007
			C40.032,37.314,40.032,37.312,40.032,37.311z M51.966,19.332c0.25,0.312,0.502,0.622,0.748,0.937
			c0.188,0.24,0.342,0.445,0.479,0.636c-0.096,0.236-0.217,0.461-0.336,0.682c-0.094-0.094-0.176-0.172-0.225-0.2
			c-0.17-0.104-0.314-0.055-0.363-0.114c-0.148-0.192-0.299-0.382-0.447-0.571c0.01-0.075,0.018-0.149,0.029-0.225
			C51.908,20.101,51.941,19.717,51.966,19.332z M50.166,14.866c0.195,0.131,0.389,0.266,0.586,0.396l0.738,0.51
			c0.236,0.186,0.467,0.38,0.695,0.571c0.227,0.176,0.441,0.359,0.65,0.547c0.086,0.078,0.166,0.158,0.252,0.237
			c0.115,0.108,0.229,0.215,0.338,0.323c0.117,0.116,0.227,0.232,0.338,0.348c0.066,0.068,0.133,0.138,0.195,0.206
			c0.152,0.161,0.299,0.321,0.441,0.479c0,0.004,0.004,0.005,0.006,0.007c0.24,0.418,0.506,0.864,0.291,0.759
			c-0.209-0.101-0.012,0.263,0.291,0.768c0.334,0.558,0.172,0.484-0.279,0.025c-0.348-0.349-0.676-0.674-1.053-1.095
			c0.008-0.003,0.021-0.006,0.023-0.013c0.014-0.069-0.004-0.15-0.01-0.223c-0.107-0.034-0.156-0.05-0.205-0.064l0.037,0.128
			c-0.254-0.293-0.535-0.632-0.857-1.056c-0.34-0.438-0.682-0.838-1.014-1.18c-0.043-0.105-0.119-0.213-0.176-0.327
			c-0.08-0.171-0.264-0.184-0.4-0.236c-0.053-0.051-0.102-0.1-0.156-0.152c-0.004-0.02-0.012-0.036-0.014-0.06
			c0-0.014-0.035-0.027-0.084-0.042c-0.307-0.314-0.629-0.659-0.965-1.007c-0.066-0.068-0.137-0.137-0.205-0.206
			C49.81,14.624,49.988,14.744,50.166,14.866z M47.082,17.763c0.018,0.065,0.037,0.131,0.064,0.201
			c0.135,0.396,0.127,0.637,0.148,0.917c-0.043-0.047-0.086-0.092-0.119-0.131c-0.029-0.037-0.061-0.072-0.092-0.11
			c0-0.058-0.002-0.116,0-0.173c0.008-0.078-0.184-0.224-0.154-0.271C47.009,18.058,47.054,17.914,47.082,17.763z M15.746,35.244
			c-0.014-0.084-0.084-0.138-0.095-0.105c-0.08,0.206-0.148,0.498-0.146,0.655c0.016,0.365,0.012,0.538-0.123,0.519
			c-0.006,0.084-0.016,0.236-0.016,0.239c0.139,0.008,0.074,0.164,0,0.385c-0.05,0.136-0.118,0.438-0.098,0.485
			c0.126,0.473-0.01,0.507-0.082,0.618c-0.031,0.044-0.079-0.034-0.105,0.021c-0.021,0.045-0.041,0.213-0.033,0.306
			c0.004,0.076,0.053,0.183,0.072,0.165c0.053-0.046,0.1-0.166,0.15-0.229c0.013-0.015,0.054,0.067,0.054,0.112
			c0,0.107-0.001,0.263-0.022,0.321c-0.021,0.063-0.064,0.027-0.099,0.058c-0.028,0.028-0.058,0.087-0.085,0.134
			c0.021,0.036,0.039,0.094,0.06,0.107c0.081,0.055,0.136,0.162,0.139,0.484c-0.002,0.241,0.008,0.676-0.017,0.68
			c-0.155,0.016-0.043,0.563-0.124,0.756c-0.003,0.007-0.003,0.014-0.005,0.02c-0.144-0.355-0.271-0.713-0.389-1.072
			c-0.299-0.95-0.417-1.402-0.518-1.384c-0.116,0.025-0.289-0.051,0.02,1.243c0.096,0.351,0.148,0.609,0.086,0.594
			c-0.053-0.019-0.247-0.301-0.529-1.084c-0.227-0.602-0.313-0.829-0.369-0.809c-0.043,0.018-0.041,0.281,0.033,0.623
			c0.248,1.178,0.209,1.294,0.021,1.135c-0.188-0.155-0.443-0.62-0.551-0.577c-0.003,0.001-0.024-0.051-0.058-0.135
			c-0.031-0.085-0.072-0.202-0.119-0.33c-0.088-0.259-0.17-0.572-0.217-0.767c-0.075-0.301-0.139-0.643-0.182-0.949
			c-0.043-0.308-0.082-0.576-0.078-0.736c-0.016-0.625-0.064-1.45-0.072-2.301c-0.003-0.426-0.008-0.859,0.008-1.276
			c0.006-0.418,0.03-0.819,0.049-1.186c0.075-1.191,0.285-1.993,0.438-2.568c0.363-1.317,0.817-2.339,1.352-3.411
			c0.164-0.35,0.309-0.608,0.406-0.839c0.096-0.229,0.161-0.419,0.199-0.606c0.1-0.471,0.445-1.304,1.338-2.466
			c0.105-0.127,0.38-0.518,0.619-0.865c0.242-0.346,0.441-0.659,0.354-0.669c-0.019-0.007,0.384-0.562,0.506-0.699
			c1.076-1.207,2.124-2.356,3.321-3.409c0.316-0.283,0.773-0.629,1.047-0.808c0.72-0.479,1.534-0.992,2.402-1.488
			c-0.015,0.042-0.029,0.082-0.013,0.098c0.042,0.039,0.124,0.045,0.205,0.071c0.019-0.083,0.065-0.164,0.039-0.183
			c-0.035-0.023-0.091-0.03-0.147-0.035c0.235-0.134,0.473-0.262,0.715-0.39c-0.049,0.228,0.465-0.042,0.709-0.066
			c0.271-0.03,0.454-0.012,0.508,0.07c0.055,0.083-0.013,0.23-0.18,0.47c-0.104,0.147-0.138,0.246-0.201,0.368
			c-0.266,0.541-0.172,0.941-0.32,1.442c-0.049,0.176-0.32,0.333-0.207,0.532c0.262,0.449-0.072,0.889-0.8,1.353
			c-0.472,0.303-1.079,0.446-1.468,0.814c-0.623,0.576-1.186,0.632-1.742,0.749c-0.304,0.066-0.656,0.108-0.93,0.447
			c-0.311,0.377-0.561,0.676-0.941,0.666c-0.064-0.001-0.202,0.062-0.223,0.11c-0.232,0.566-0.852,0.734-1.079,1.25
			c-0.028,0.065-0.159,0.135-0.233,0.142c-0.158,0.019-0.322,0.019-0.466-0.014c-0.132-0.029-0.269-0.155-0.345,0.138
			c-0.022,0.077,0.161,0.169,0.27,0.22c0.051,0.022,0.152-0.072,0.215-0.064c0.34,0.05,0.369,0.197,0.285,0.685
			c-0.044,0.243-0.004,0.479,0.055,0.687c0.025,0.1,0.158,0.139,0.242,0.204c-0.197,0.062-0.207,0.182-0.149,0.348
			c0.075,0.213,0.034,0.437-0.2,0.561c-0.275,0.145-0.071,0.354-0.16,0.481c-0.099,0.155-0.262,0.266-0.394,0.4
			c-0.009,0.006,0.024,0.062,0.021,0.067c-0.311,0.298-0.189,0.707-0.351,1.044c-0.028,0.058,0.065,0.152-0.072,0.229
			c-0.427,0.24-0.539,0.595-0.382,1.05c0.087,0.254,0.028,0.297-0.296,0.255c-0.065,0.182-0.103,0.386-0.193,0.533
			c-0.185,0.29,0.235,0.222,0.159,0.476c-0.044,0.148,0.055,0.343,0.105,0.507c0.076,0.231,0.111,0.551,0.268,0.657
			c-0.064,0.218-0.125,0.445-0.138,0.699c-0.011,0.105-0.087,0.338-0.13,0.396c-0.054,0.087-0.114,0.198-0.151,0.336
			c-0.034,0.137-0.065,0.295-0.093,0.473c-0.023,0.178-0.063,0.372-0.068,0.583c-0.002,0.21-0.006,0.434-0.01,0.665
			c-0.01,0.209-0.004,0.397-0.002,0.565c0,0.088-0.008,0.158-0.014,0.238l-0.302,0.217c-0.136,0.1-0.042,0.106,0.033,0.167
			c0.087,0.068,0.195,0.143,0.214,0.238c-0.002,0.031-0.004,0.062-0.006,0.092c-0.018,0.044-0.055,0.094-0.119,0.149
			c0,0,0,0.001,0,0.003C15.781,35.339,15.762,35.324,15.746,35.244z M33.771,37.048c0.003-0.004,0.004-0.007,0.004-0.011
			c0.018,0.049,0.031,0.097,0.047,0.145C33.762,37.137,33.756,37.098,33.771,37.048z M33.881,37.217
			c-0.021-0.046-0.047-0.127-0.075-0.224c0.006-0.003,0.018-0.003,0.028-0.003c0.02,0.085,0.035,0.152,0.045,0.198
			c0.003,0.014,0.007,0.022,0.009,0.032C33.886,37.219,33.882,37.217,33.881,37.217z M33.922,37.068
			c-0.001-0.019-0.006-0.044-0.01-0.063c0,0.001,0,0,0.002,0.001c0.017,0.006,0.033,0.009,0.052,0.015
			c0.002,0.018,0.004,0.035,0.006,0.054c0.001,0.006,0.001,0.012,0.002,0.017l-0.021-0.004c-0.008-0.001-0.016,0.003-0.023,0.008
			C33.927,37.086,33.925,37.077,33.922,37.068z M33.964,37.239c-0.008-0.036-0.02-0.077-0.031-0.124
			c0.004,0.001,0.004,0.003,0.006,0.003l0.042,0.008c0.007,0.041,0.015,0.079,0.021,0.114C33.988,37.241,33.976,37.24,33.964,37.239
			z M35.601,39.409c-0.127-0.023-0.244,0.062-0.375,0.006c-0.045-0.017-0.139,0.087-0.221,0.122
			c-0.064,0.025-0.138,0.029-0.197,0.009c-0.023-0.007-0.031-0.083-0.045-0.123c-0.062-0.156-0.107-0.327-0.133-0.492
			c-0.017-0.106-0.017-0.222-0.008-0.34c0.05,0.058,0.104,0.113,0.154,0.171c0.041,0.044,0.079,0.09,0.121,0.135
			c0.043,0.043,0.086,0.068,0.133,0.104c0.094,0.062,0.175,0.141,0.297,0.197c0.129,0.059,0.26,0.12,0.396,0.184
			c0.032,0.014,0.064,0.027,0.096,0.041C35.751,39.548,35.671,39.426,35.601,39.409z M35.497,36
			c-0.128,0.014-0.243,0.026-0.354,0.04c-0.022-0.032-0.045-0.064-0.07-0.098c-0.043-0.048-0.045-0.062,0.002-0.044
			c0.027,0.012,0.052,0.023,0.074,0.028c0.033,0.011,0.062,0.014,0.09,0.018c-0.023-0.04-0.044-0.083-0.07-0.125
			c-0.023-0.036-0.064-0.068-0.088-0.104c-0.012-0.016-0.004-0.041,0.006-0.055c0.004-0.008,0.034,0.003,0.042,0.014
			c0.032,0.032,0.059,0.07,0.089,0.104c0.021,0.024,0.047,0.043,0.068,0.064c-0.002-0.02,0-0.038-0.007-0.062
			c-0.021-0.05-0.049-0.107-0.06-0.157c-0.018-0.102-0.016-0.188-0.018-0.29c-0.001-0.061,0.007-0.129,0.082,0
			c0.245,0.144,0.443,0.431,0.619,0.664C35.853,35.977,35.745,35.973,35.497,36z M35.973,36.159
			c-0.005-0.004-0.01-0.007-0.013-0.011c-0.021-0.032-0.02-0.067-0.02-0.095c0.015,0.025,0.027,0.061,0.039,0.09
			C35.984,36.148,35.978,36.159,35.973,36.159z M41.503,38.97c-0.014,0.015-0.021,0.03-0.033,0.044
			c-0.078,0.051-0.163,0.102-0.255,0.157c0.011-0.019,0.023-0.04,0.048-0.067c-0.026-0.011-0.053-0.022-0.076-0.033
			c-0.021-0.008-0.042-0.013-0.063-0.02l0.106-0.216c0.049-0.096-0.186-0.095-0.085-0.215c0.03-0.041,0.033-0.072,0.015-0.1
			c-0.104,0.056-0.217,0.126-0.28,0.01c-0.007-0.008-0.063,0.005-0.07,0.02c-0.101,0.159-0.241,0.127-0.372,0.163
			c-0.086,0.026-0.21,0.146-0.238,0.127c-0.157-0.103-0.291,0.043-0.432,0.089c-0.053,0.016-0.121,0.059-0.176,0.059
			c-0.026-0.02-0.051-0.034-0.071-0.044c-0.005-0.008-0.011-0.019-0.013-0.03c-0.006-0.013-0.085,0.01-0.126,0.009
			c-0.169,0.001-0.308,0.12-0.442,0.19c-0.023,0.013-0.05,0.021-0.075,0.03c-0.035-0.016-0.07-0.033-0.104-0.048
			c-0.055-0.054-0.105-0.142-0.157-0.205c-0.104-0.136-0.208-0.258-0.314-0.378c0.037-0.282,0.058-0.648,0.113-0.939
			c0.026-0.164,0.245,0.128,0.148-0.233c-1.071-0.47-1.729-0.789-2.138-1.013c-0.045-0.03-0.075-0.041-0.104-0.05
			c-0.031-0.111-0.071-0.221-0.117-0.312c-0.072-0.136-0.154-0.301-0.246-0.454c-0.09-0.144-0.195-0.303-0.316-0.418
			c-0.012-0.011-0.018-0.04-0.027-0.061c0.016-0.005,0.027-0.019,0.04-0.015c0.306,0.072,0.591,0.149,0.788,0.451
			c0.027,0.04,0.055,0.071,0.083,0.099l0.079,0.109c0.047,0.069,0.094,0.121,0.115,0.24c0.004,0.027,0.017,0.05,0.029,0.048
			c0.016-0.002,0.034-0.011,0.053-0.019c-0.019,0.022-0.037,0.047-0.054,0.067c-0.027,0.042-0.013,0.067-0.017,0.099
			c0.052-0.039,0.111-0.081,0.154-0.119c0,0.002,0,0.002,0,0.002c0.006,0.009,0.034-0.019,0.037-0.03
			c0.004-0.009,0.007-0.012,0.009-0.019c0.022-0.025,0.041-0.052,0.063-0.076c0.008,0.002,0.015,0.011,0.015,0.021
			c0.008,0.131,0.052,0.087,0.12-0.019c0.054-0.084,0.071-0.078,0.082-0.022c0.017,0.091,0.01,0.206,0.033,0.275
			c0.01,0.034,0.025,0.065,0.088,0.066c0.079-0.004,0.159,0.04,0.114,0.196c-0.015,0.041-0.004,0.084,0.015,0.107
			c0.01,0.016,0.063,0.01,0.074-0.002c0.129-0.171,0.367-0.277,0.39-0.518c0.007-0.071,0.072-0.191,0.175-0.193
			c0.135-0.002,0.203-0.111,0.199-0.182c-0.012-0.131,0.063-0.218,0.14-0.312c0.061-0.077,0.095-0.06,0.134,0.012
			c0.07,0.115,0.112,0.271,0.248,0.346c0.039,0.018,0.072,0.053,0.082,0.09c0.079,0.279,0.205,0.55,0.197,0.848
			c-0.016,0.21,0.073,0.302,0.221,0.399c0.028,0.015,0.045,0.059,0.049,0.093c0.031,0.129,0.191,0.17,0.234,0.29
			c0.002,0.007,0.027,0.01,0.031,0.007c0.056-0.066,0.124-0.075,0.194-0.07c0.008,0.073,0.017,0.148,0.024,0.224
			c-0.029,0.037-0.052,0.076-0.055,0.105c-0.002,0.018,0.038,0.033,0.073,0.039c0,0.01,0.002,0.019,0.002,0.027
			c0.059,0.214,0.146,0.525,0.215,0.778c0.009,0.032,0.017,0.061,0.024,0.09c0.008,0.01,0.016,0.02,0.023,0.028
			c0.014,0.018,0.027,0.034,0.037,0.048c0.022,0.025,0.037,0.037,0.039,0.029c0.008-0.016,0.008-0.045,0.004-0.082
			c-0.004-0.018-0.004-0.037-0.008-0.06c-0.005-0.056-0.012-0.114-0.017-0.178c-0.026-0.243-0.052-0.517-0.076-0.749
			c0.097-0.032,0.196-0.062,0.294-0.092c-0.002,0.012-0.002,0.023-0.007,0.025c-0.077,0.033-0.077,0.086-0.023,0.126
			c0.024,0.021,0.111-0.008,0.12,0.009c0.018,0.04-0.002,0.096,0.01,0.141c0.002,0.016,0.054,0.032,0.08,0.026
			c0.059-0.01,0.108-0.04,0.166-0.053c0.034-0.006,0.072,0.008,0.109,0.013l-0.084,0.053l-0.08,0.054
			c0.027,0.018,0.054,0.042,0.084,0.051c0.043,0.01,0.094,0,0.133,0.013c0.07,0.024,0.147,0.055,0.079,0.162
			c-0.017,0.026,0.045,0.103,0.026,0.128c-0.068,0.112-0.015,0.16,0.078,0.206c0.034,0.015,0.059,0.034,0.07,0.057
			c0.007-0.002,0.012-0.006,0.019-0.009c0.104-0.051,0.192,0.033,0.322-0.084c0.067-0.062,0.171-0.069,0.195,0.064
			c0.009,0.062,0.17,0.085,0.271,0.062c0.057-0.012,0.109-0.019,0.166-0.027c-0.129,0.097-0.316,0.259-0.611,0.454
			C41.513,38.978,41.508,38.974,41.503,38.97z M41.951,39.605c-0.08,0.032-0.153,0.062-0.222,0.084
			c0.003-0.017,0.033-0.035,0.048-0.042c0.047-0.021,0.104-0.039,0.156-0.042C41.938,39.604,41.946,39.605,41.951,39.605z
			 M43.335,39.1c0.01,0,0.02-0.003,0.025-0.003c-0.129,0.085-0.27,0.162-0.361,0.214c-0.133,0.071-0.219,0.102-0.312,0.13
			c0.01-0.006,0.02-0.014,0.031-0.019c-0.006-0.01-0.018-0.026-0.023-0.025c-0.016,0.005-0.031,0.017-0.045,0.027
			c0.006,0.006,0.016,0.019,0.021,0.021c-0.016,0.004-0.029,0.008-0.049,0.013c-0.084,0.059-0.162,0.146-0.256,0.185
			c-0.016,0.004-0.105,0.024-0.176,0.041c-0.002-0.005-0.006-0.007-0.01-0.011c-0.002,0.005-0.004,0.011-0.006,0.016
			c-0.002,0-0.006,0-0.008,0.001c-0.033,0.003-0.064,0.007-0.094,0.01c-0.004,0.005-0.004,0.009-0.006,0.014
			c-0.002,0-0.004,0-0.006,0c0.002,0.001,0.004,0,0.004,0c-0.008,0.035-0.023,0.07-0.035,0.105l-0.005-0.005
			c-0.007,0.018-0.028,0.038-0.024,0.049c0.004,0.006,0.006,0.01,0.011,0.014c-0.015,0.043-0.029,0.086-0.044,0.128
			c-0.103-0.048-0.217-0.035-0.322-0.058c-0.03-0.007-0.055-0.042-0.08-0.063c0.035-0.013,0.066-0.03,0.102-0.041
			c0.021-0.006,0.048,0.006,0.07,0.003c0.041-0.008,0.113-0.008,0.119-0.029c0.019-0.05-0.012-0.071-0.062-0.086
			c0.011-0.002,0.019-0.002,0.027-0.005c0.048-0.006,0.088-0.011,0.125-0.014c0.013,0.004,0.023,0.01,0.035,0.013
			c0.024,0,0.054-0.005,0.079-0.011c-0.01,0-0.023-0.002-0.035-0.01c0.014-0.001,0.031-0.003,0.047-0.004
			c0.01-0.03,0.02-0.06,0.027-0.09c0.053,0.003,0.102,0.002,0.146-0.011c0.049-0.016,0.068-0.067,0.016-0.108
			c0.006-0.002,0.008-0.003,0.01-0.005c0.023-0.013,0.059-0.036,0.092-0.062c-0.041,0.022-0.078,0.039-0.119,0.058
			c-0.012-0.009-0.021-0.018-0.041-0.024c0.006-0.006,0.014-0.012,0.02-0.019c-0.014-0.011-0.031-0.022-0.047-0.03
			c-0.002-0.002-0.012,0.015-0.021,0.022c0.012,0.011,0.02,0.021,0.029,0.031c-0.018,0.032-0.037,0.053-0.055,0.064
			c0.068-0.251,0.121-0.511,0.164-0.772c0.033,0.022,0.057,0.047,0.051,0.079c-0.002,0.004,0.041,0.007,0.051,0.005
			c0.195-0.061,0.344-0.051,0.494-0.039c-0.025,0.026-0.051,0.053-0.076,0.076c0.031-0.023,0.066-0.049,0.098-0.074
			c0.109,0.01,0.217,0.02,0.34,0.004c0.139-0.021,0.229-0.023,0.078,0.046c-0.09,0.04-0.248,0.088-0.131,0.122
			c0.049,0.016,0.205-0.009,0.312-0.018c0.018-0.001,0.033-0.003,0.049-0.006c-0.006,0.01-0.018,0.021-0.025,0.03
			c-0.02,0.016-0.043,0.03-0.064,0.046c-0.004,0.001-0.006,0.003-0.006,0.004s0,0.001,0,0.001c-0.002-0.007-0.018-0.023-0.025-0.024
			c-0.035,0-0.07,0.004-0.137,0.01c-0.014,0.009-0.055,0.037-0.098,0.065C43.248,39.086,43.291,39.097,43.335,39.1z M50.501,46.566
			c-0.014-0.01-0.021-0.03-0.029-0.049c0.027,0.021,0.053,0.035,0.08,0.051c-0.008,0.007-0.014,0.013-0.021,0.019L50.501,46.566z
			 M50.816,46.784l-0.26-0.179c0.006-0.007,0.012-0.017,0.018-0.023c0.07,0.036,0.141,0.056,0.219,0.058l0.059,0.029
			c0.018,0.01,0.039,0.016,0.057,0.023C50.876,46.724,50.845,46.754,50.816,46.784z"/>
		<path fill-rule="evenodd" clip-rule="evenodd" fill="#ED1C24" d="M57.191,56.833c-0.057,0.077,0.127-0.034,0.299-0.097
			c0.164-0.204,0.266-0.324,0.301-0.391c0.027-0.054-0.023-0.037-0.037-0.053C57.56,56.49,57.236,56.763,57.191,56.833z"/>
		<path fill-rule="evenodd" clip-rule="evenodd" fill="#ED1C24" d="M49.117,13.637c0.121,0.042,0.24,0.085,0.418,0.146
			c-0.107-0.081-0.229-0.173-0.35-0.267c-0.121-0.043-0.357-0.132-0.348-0.108C48.859,13.447,49.021,13.554,49.117,13.637z"/>
		<path fill-rule="evenodd" clip-rule="evenodd" fill="#ED1C24" d="M50.476,14.298c0.09,0.035,0.176,0.068,0.256,0.101
			c-0.08-0.058-0.15-0.108-0.219-0.158c-0.08-0.029-0.188-0.076-0.229-0.083C50.269,14.155,50.41,14.249,50.476,14.298z"/>
		<path fill-rule="evenodd" clip-rule="evenodd" fill="#ED1C24" d="M36.492,35.875c0.01,0.019,0.018,0.038,0.029,0.06
			c0.003,0.007,0.014-0.008,0.018-0.014L36.511,35.8C36.507,35.818,36.503,35.836,36.492,35.875z"/>
		<path fill-rule="evenodd" clip-rule="evenodd" fill="#ED1C24" d="M42.351,39.472c0.025,0.021,0.051,0.046,0.084,0.062
			c0.012,0.005,0.037-0.014,0.059-0.02c-0.029-0.041-0.059-0.08-0.096-0.121C42.386,39.412,42.378,39.432,42.351,39.472z"/>
		<path fill-rule="evenodd" clip-rule="evenodd" fill="#ED1C24" d="M41.298,38.886c0.033,0.01,0.066,0.023,0.102,0.023
			c0.016,0,0.033-0.023,0.047-0.036l-0.128-0.07C41.314,38.82,41.308,38.84,41.298,38.886z"/>
		<path fill-rule="evenodd" clip-rule="evenodd" fill="#ED1C24" d="M42.396,38.922c0.039,0.001,0.072,0.008,0.104,0.001
			c0.006-0.001,0.012-0.033,0.018-0.051c-0.033-0.007-0.066-0.016-0.098-0.014C42.41,38.858,42.408,38.892,42.396,38.922z"/>
		<path fill-rule="evenodd" clip-rule="evenodd" fill="#ED1C24" d="M42.464,39.173l-0.047,0.03c0.01,0.008,0.018,0.023,0.025,0.023
			c0.016-0.007,0.029-0.019,0.045-0.028C42.48,39.191,42.472,39.184,42.464,39.173z"/>
		<path fill-rule="evenodd" clip-rule="evenodd" fill="#ED1C24" d="M15.634,24.937c-0.054-0.118-0.15-0.203-0.25-0.335
			c-0.1,0.112-0.225,0.222-0.301,0.359c-0.043,0.076,0.026,0.205,0.002,0.304c-0.082,0.351-0.171,0.708-0.281,1.044
			c-0.125,0.399,0.129,0.672,0.067,1.05c-0.062,0.4-0.12,0.824-0.067,1.197c0.025,0.212-0.133,0.168-0.158,0.271
			c-0.061,0.229,0.085,0.457,0.293,0.468c0.225,0.012,0.232-0.231,0.225-0.327c-0.041-0.383,0.243-0.812,0.023-1.182
			c-0.02-0.03-0.011-0.113,0.014-0.146c0.057-0.077,0.131-0.14,0.198-0.208c-0.07-0.085-0.155-0.156-0.202-0.258
			c-0.033-0.078-0.019-0.194-0.012-0.295c0.01-0.176-0.004-0.48,0.053-0.51c0.281-0.144,0.094-0.376,0.205-0.54
			c0.113-0.17,0.141-0.357,0.093-0.536C15.789,25.21,15.685,25.049,15.634,24.937z"/>
		<path fill-rule="evenodd" clip-rule="evenodd" fill="#ED1C24" d="M54.736,15.899c0.15-0.057,0.193-0.253,0.281-0.389l-0.508-0.177
			c-0.316-0.109-0.367,0.095-0.486,0.211c-0.016,0.017-0.037,0.03-0.045,0.051l-0.068,0.176c0.078,0.021,0.162,0.05,0.232,0.061
			C54.347,15.864,54.597,15.953,54.736,15.899z"/>
		<path fill-rule="evenodd" clip-rule="evenodd" fill="#ED1C24" d="M47.371,14.984c0.104,0.063,0.26,0.079,0.617,0.2
			c-0.236-0.242-0.314-0.321-0.4-0.371c-0.131-0.071-0.32-0.214-0.379-0.049C47.191,14.812,47.289,14.938,47.371,14.984z"/>
		<path fill-rule="evenodd" clip-rule="evenodd" fill="#ED1C24" d="M14.517,31.167c-0.025,0.091-0.023,0.189-0.033,0.284
			c0.055-0.01,0.108-0.02,0.137-0.024c0.009-0.183,0.012-0.277,0.016-0.371C14.595,31.093,14.531,31.123,14.517,31.167z"/>
		<path fill-rule="evenodd" clip-rule="evenodd" fill="#ED1C24" d="M16.298,28.188c0.018-0.05-0.01-0.114-0.017-0.174l-0.247,0.151
			c0.026,0.048,0.053,0.096,0.109,0.201C16.216,28.289,16.276,28.246,16.298,28.188z"/>
		<path fill-rule="evenodd" clip-rule="evenodd" fill="#ED1C24" d="M43,14.212l-0.125-0.082c-0.031,0.009-0.059,0.017-0.088,0.024
			c0.043,0.025,0.086,0.058,0.133,0.077C42.935,14.238,42.97,14.218,43,14.212z"/>
		<path fill-rule="evenodd" clip-rule="evenodd" fill="#ED1C24" d="M62.119,26.569c-0.004-0.042-0.008-0.083-0.012-0.124
			c-0.027-0.013-0.053-0.024-0.074-0.036c0.006,0.043,0.006,0.086,0.02,0.126C62.056,26.549,62.095,26.558,62.119,26.569z"/>
		<path fill-rule="evenodd" clip-rule="evenodd" fill="#ED1C24" d="M15.395,29.175l0.068,0.079c0.022-0.017,0.042-0.028,0.062-0.041
			c-0.022-0.026-0.043-0.056-0.07-0.073C15.443,29.134,15.416,29.161,15.395,29.175z"/>
		<path fill-rule="evenodd" clip-rule="evenodd" fill="#ED1C24" d="M55.814,15.751c-0.025-0.04-0.049-0.081-0.07-0.12
			c-0.035-0.007-0.062-0.012-0.09-0.016c0.023,0.042,0.045,0.084,0.076,0.122C55.742,15.75,55.785,15.748,55.814,15.751z"/>
	</g>
	<g>
		<g>
			<rect x="17.398" y="47.68" fill-rule="evenodd" clip-rule="evenodd" width="6.307" height="7.476"/>
			<rect x="24.64" y="47.68" fill-rule="evenodd" clip-rule="evenodd" width="6.306" height="7.476"/>
			<rect x="31.88" y="47.68" fill-rule="evenodd" clip-rule="evenodd" width="6.307" height="7.476"/>
			<rect x="39.121" y="47.68" fill-rule="evenodd" clip-rule="evenodd" width="6.309" height="7.476"/>
			<path fill-rule="evenodd" clip-rule="evenodd" d="M9.457,53.286h49.266l0.854,7.708c0,0-12.584-2.347-26.447-2.347
				c-11.516,0-24.738,2.347-24.738,2.347L9.457,53.286z"/>
			<path fill-rule="evenodd" clip-rule="evenodd" d="M48.892,50.746c0.113,0.319,0.361,0.457,0.461,0.646
				c0.172-0.869,0.303-1.708,0.559-2.521c0.504,0.329,0.449,0.939,0.844,1.36c-0.191-2.203,3.146,0.137,3.496,1.237
				c0.699,2.206-1.855,3.287-3.766,3.116C48.986,54.45,46.488,50.906,48.892,50.746z"/>
			<rect x="11.558" y="56.789" fill-rule="evenodd" clip-rule="evenodd" width="6.774" height="6.774"/>
			<rect x="49.632" y="56.789" fill-rule="evenodd" clip-rule="evenodd" width="6.773" height="6.774"/>
		</g>
		<g>
			<path fill-rule="evenodd" clip-rule="evenodd" d="M57.253,27c-2.045,0.879-38.318,17.05-43.086,19.099
				c-0.708,0.305-0.386-0.566-0.386-0.566s41.233-19.329,43.089-20.126C59.345,24.344,59.605,25.99,57.253,27z"/>
			<path fill-rule="evenodd" clip-rule="evenodd" d="M59.035,33.018c-2.129,0.66-39.901,12.95-44.859,14.489
				c-0.736,0.229-0.323-0.604-0.323-0.604S56.89,31.991,58.82,31.392C61.39,30.594,61.476,32.259,59.035,33.018z"/>
		</g>
	</g>
</g>
</svg>
